<svg id="Layer_1" data-name="Layer 1" xmlns="http://www.w3.org/2000/svg" xmlns:xlink="http://www.w3.org/1999/xlink" viewBox="0 0 1350.75 1080"><defs><style>.cls-1{fill:url(#linear-gradient);}.cls-2{fill:#fff;fill-rule:evenodd;}.cls-3{fill:#3dc5e5;}.cls-4{fill:#8fd4e4;fill-opacity:0.57;}</style><linearGradient id="linear-gradient" y1="1079.97" x2="1" y2="1079.97" gradientTransform="matrix(7.98, -986.84, -986.84, -7.98, 1066431.95, 9657.51)" gradientUnits="userSpaceOnUse"><stop offset="0" stop-color="#42c7e5"/><stop offset="1" stop-color="#16788e"/></linearGradient></defs><title>abautmoj</title><rect class="cls-1" width="1350" height="1080"/><path class="cls-2" d="M1334.62,939.15" transform="translate(-284.25)"/><circle class="cls-3" cx="100.07" cy="255.01" r="2.6"/><circle class="cls-4" cx="1190.63" cy="830.82" r="2.6"/><circle class="cls-3" cx="79.77" cy="986.75" r="2.6"/><circle class="cls-4" cx="1170.33" cy="99.07" r="2.6"/><circle class="cls-3" cx="160.87" cy="500.19" r="2.6"/><circle class="cls-4" cx="1251.43" cy="585.63" r="2.6"/><circle class="cls-3" cx="227.13" cy="211.17" r="2.6"/><circle class="cls-4" cx="1317.69" cy="874.66" r="2.6"/><circle class="cls-3" cx="206.82" cy="1030.59" r="2.6"/><circle class="cls-4" cx="1297.39" cy="55.23" r="2.6"/><circle class="cls-3" cx="33.82" cy="544.03" r="2.6"/><circle class="cls-4" cx="1124.38" cy="541.79" r="2.6"/><circle class="cls-3" cx="23.66" cy="710.14" r="2.6"/><circle class="cls-4" cx="1114.22" cy="375.68" r="2.6"/><circle class="cls-3" cx="3.35" cy="531.62" r="2.6"/><circle class="cls-4" cx="1093.91" cy="574.91" r="2.6"/><circle class="cls-3" cx="237.29" cy="45.06" r="2.6"/><circle class="cls-4" cx="1327.85" cy="1040.76" r="2.6"/><circle class="cls-3" cx="257.59" cy="380.95" r="2.6"/><circle class="cls-4" cx="1348.15" cy="704.88" r="2.6"/><circle class="cls-3" cx="237.29" cy="860.81" r="2.6"/><circle class="cls-4" cx="1327.85" cy="225.01" r="2.6"/><circle class="cls-3" cx="3.35" cy="374.25" r="2.6"/><circle class="cls-4" cx="1093.91" cy="732.27" r="2.6"/><circle class="cls-3" cx="142.42" cy="399.9" r="2.6"/><circle class="cls-4" cx="1232.99" cy="685.93" r="2.6"/><circle class="cls-3" cx="122.12" cy="841.86" r="2.6"/><circle class="cls-4" cx="1212.68" cy="243.96" r="2.6"/><circle class="cls-3" cx="118.52" cy="355.31" r="2.6"/><circle class="cls-4" cx="1209.09" cy="730.52" r="2.6"/><circle class="cls-3" cx="27.26" cy="418.84" r="2.6"/><circle class="cls-4" cx="1117.82" cy="666.98" r="2.6"/><circle class="cls-3" cx="6.95" cy="822.92" r="2.6"/><circle class="cls-4" cx="1097.52" cy="262.91" r="2.6"/><circle class="cls-3" cx="233.69" cy="336.36" r="2.6"/><circle class="cls-4" cx="1324.25" cy="749.47" r="2.6"/><circle class="cls-3" cx="215.93" cy="587.24" r="2.6"/><circle class="cls-4" cx="1306.49" cy="498.58" r="2.6"/><circle class="cls-3" cx="195.63" cy="654.52" r="2.6"/><circle class="cls-4" cx="1286.19" cy="431.31" r="2.6"/><circle class="cls-3" cx="45.02" cy="167.96" r="2.6"/><circle class="cls-4" cx="1135.57" cy="917.86" r="2.6"/><circle class="cls-3" cx="169.17" cy="317.42" r="2.6"/><circle class="cls-4" cx="1259.73" cy="768.41" r="2.6"/><circle class="cls-3" cx="148.87" cy="924.34" r="2.6"/><circle class="cls-4" cx="1239.43" cy="161.49" r="2.6"/><circle class="cls-3" cx="91.77" cy="437.78" r="2.6"/><circle class="cls-4" cx="1182.34" cy="648.05" r="2.6"/><circle class="cls-3" cx="113.3" cy="561.19" r="2.6"/><circle class="cls-4" cx="1203.85" cy="524.63" r="2.6"/><circle class="cls-3" cx="92.99" cy="680.57" r="2.6"/><circle class="cls-4" cx="1183.56" cy="405.26" r="2.6"/><circle class="cls-3" cx="147.65" cy="194.01" r="2.6"/><circle class="cls-4" cx="1238.21" cy="891.82" r="2.6"/><circle class="cls-3" cx="32.68" cy="517.73" r="2.6"/><circle class="cls-4" cx="1123.24" cy="568.1" r="2.6"/><circle class="cls-3" cx="12.38" cy="724.03" r="2.6"/><circle class="cls-4" cx="1102.94" cy="361.79" r="2.6"/><circle class="cls-3" cx="228.27" cy="237.47" r="2.6"/><circle class="cls-4" cx="1318.83" cy="848.35" r="2.6"/><circle class="cls-3" cx="59.43" cy="428.64" r="2.6"/><circle class="cls-4" cx="1149.99" cy="657.18" r="2.6"/><circle class="cls-3" cx="39.12" cy="813.12" r="2.6"/><circle class="cls-4" cx="1129.68" cy="272.71" r="2.6"/><circle class="cls-3" cx="201.52" cy="326.56" r="2.6"/><circle class="cls-4" cx="1292.08" cy="759.27" r="2.6"/><circle class="cls-3" cx="28.62" cy="1050.34" r="2.6"/><circle class="cls-4" cx="1119.18" cy="35.48" r="2.6"/><circle class="cls-3" cx="215.32" cy="909" r="2.6"/><circle class="cls-4" cx="1305.88" cy="176.82" r="2.6"/><circle class="cls-3" cx="24.72" cy="752.6" r="2.6"/><circle class="cls-4" cx="1115.28" cy="333.23" r="2.6"/><circle class="cls-3" cx="4.42" cy="489.16" r="2.6"/><circle class="cls-4" cx="1094.97" cy="596.66" r="2.6"/><circle class="cls-3" cx="145.29" cy="41.31" r="2.6"/><circle class="cls-4" cx="1235.85" cy="1044.52" r="2.6"/><circle class="cls-3" cx="176.66" cy="639.5" r="2.6"/><circle class="cls-4" cx="1267.22" cy="446.33" r="2.6"/><circle class="cls-3" cx="156.35" cy="602.26" r="2.6"/><circle class="cls-4" cx="1246.91" cy="483.56" r="2.6"/><circle class="cls-3" cx="84.29" cy="115.7" r="2.6"/><circle class="cls-4" cx="1174.85" cy="970.12" r="2.6"/><circle class="cls-3" cx="41.75" cy="336" r="2.6"/><circle class="cls-4" cx="1132.3" cy="749.83" r="2.6"/><circle class="cls-3" cx="21.44" cy="905.76" r="2.6"/><circle class="cls-4" cx="1112.01" cy="180.06" r="2.6"/><circle class="cls-3" cx="219.2" cy="419.2" r="2.6"/><circle class="cls-4" cx="1309.76" cy="666.62" r="2.6"/><circle class="cls-3" cx="230.42" cy="504.39" r="2.6"/><circle class="cls-4" cx="1320.98" cy="581.43" r="2.6"/><circle class="cls-3" cx="210.12" cy="737.37" r="2.6"/><circle class="cls-4" cx="1300.68" cy="348.46" r="2.6"/><circle class="cls-3" cx="30.53" cy="250.81" r="2.6"/><circle class="cls-4" cx="1121.08" cy="835.02" r="2.6"/></svg>