<?xml version="1.0" encoding="UTF-8" standalone="no"?><!DOCTYPE svg PUBLIC "-//W3C//DTD SVG 1.1//EN" "http://www.w3.org/Graphics/SVG/1.1/DTD/svg11.dtd"><svg width="100%" height="100%" viewBox="0 0 600 360" version="1.1" xmlns="http://www.w3.org/2000/svg" xmlns:xlink="http://www.w3.org/1999/xlink" xml:space="preserve" xmlns:serif="http://www.serif.com/" style="fill-rule:evenodd;clip-rule:evenodd;stroke-linejoin:round;stroke-miterlimit:2;"><rect x="0" y="0" width="600" height="360" style="fill:url(#_Linear1);"/><circle cx="76.533" cy="245.013" r="0.693" style="fill:#1b2e4d;fill-opacity:0.94;"/><circle cx="523.467" cy="114.987" r="0.693" style="fill:#0d526b;"/><circle cx="94.773" cy="335.253" r="0.693" style="fill:#1b2e4d;fill-opacity:0.94;"/><circle cx="505.227" cy="24.747" r="0.693" style="fill:#0d526b;"/><circle cx="25.173" cy="100.533" r="0.693" style="fill:#1b2e4d;fill-opacity:0.94;"/><circle cx="574.827" cy="259.467" r="0.693" style="fill:#0d526b;"/><circle cx="25.173" cy="259.467" r="0.693" style="fill:#1b2e4d;fill-opacity:0.94;"/><circle cx="574.827" cy="100.533" r="0.693" style="fill:#0d526b;"/><circle cx="28.08" cy="328.16" r="0.693" style="fill:#1b2e4d;fill-opacity:0.94;"/><circle cx="571.92" cy="31.84" r="0.693" style="fill:#0d526b;"/><circle cx="58.8" cy="143.733" r="0.693" style="fill:#1b2e4d;fill-opacity:0.94;"/><circle cx="541.2" cy="216.267" r="0.693" style="fill:#0d526b;"/><circle cx="58.8" cy="216.267" r="0.693" style="fill:#1b2e4d;fill-opacity:0.94;"/><circle cx="541.2" cy="143.733" r="0.693" style="fill:#0d526b;"/><circle cx="94.507" cy="162.453" r="0.693" style="fill:#1b2e4d;fill-opacity:0.94;"/><circle cx="505.493" cy="197.547" r="0.693" style="fill:#0d526b;"/><circle cx="19.387" cy="148.773" r="0.693" style="fill:#1b2e4d;fill-opacity:0.94;"/><circle cx="580.613" cy="211.227" r="0.693" style="fill:#0d526b;"/><circle cx="100.293" cy="129.573" r="0.693" style="fill:#1b2e4d;fill-opacity:0.94;"/><circle cx="499.707" cy="230.427" r="0.693" style="fill:#0d526b;"/><circle cx="25.173" cy="115.893" r="0.693" style="fill:#1b2e4d;fill-opacity:0.94;"/><circle cx="574.827" cy="244.107" r="0.693" style="fill:#0d526b;"/><circle cx="151.68" cy="244.107" r="0.693" style="fill:#1b2e4d;fill-opacity:0.94;"/><circle cx="448.32" cy="115.893" r="0.693" style="fill:#0d526b;"/><circle cx="100.293" cy="230.427" r="0.693" style="fill:#1b2e4d;fill-opacity:0.94;"/><circle cx="499.707" cy="129.573" r="0.693" style="fill:#0d526b;"/><circle cx="25.173" cy="216.747" r="0.693" style="fill:#1b2e4d;fill-opacity:0.94;"/><circle cx="574.827" cy="143.253" r="0.693" style="fill:#0d526b;"/><circle cx="28.08" cy="285.44" r="0.693" style="fill:#1b2e4d;fill-opacity:0.94;"/><circle cx="571.92" cy="74.56" r="0.693" style="fill:#0d526b;"/><circle cx="151.68" cy="143.253" r="0.693" style="fill:#1b2e4d;fill-opacity:0.94;"/><circle cx="448.32" cy="216.747" r="0.693" style="fill:#0d526b;"/><circle cx="43.413" cy="190.773" r="0.693" style="fill:#1b2e4d;fill-opacity:0.94;"/><circle cx="556.587" cy="169.227" r="0.693" style="fill:#0d526b;"/><circle cx="46.32" cy="259.467" r="0.693" style="fill:#1b2e4d;fill-opacity:0.94;"/><circle cx="553.68" cy="100.533" r="0.693" style="fill:#0d526b;"/><circle cx="40.56" cy="53.493" r="0.693" style="fill:#1b2e4d;fill-opacity:0.94;"/><circle cx="559.44" cy="306.507" r="0.693" style="fill:#0d526b;"/><circle cx="40.56" cy="306.507" r="0.693" style="fill:#1b2e4d;fill-opacity:0.94;"/><circle cx="559.44" cy="53.493" r="0.693" style="fill:#0d526b;"/><circle cx="118.533" cy="39.333" r="0.693" style="fill:#1b2e4d;fill-opacity:0.94;"/><circle cx="481.467" cy="320.667" r="0.693" style="fill:#0d526b;"/><circle cx="133.44" cy="334.347" r="0.693" style="fill:#1b2e4d;fill-opacity:0.94;"/><circle cx="466.56" cy="25.653" r="0.693" style="fill:#0d526b;"/><circle cx="118.533" cy="320.667" r="0.693" style="fill:#1b2e4d;fill-opacity:0.94;"/><circle cx="481.467" cy="39.333" r="0.693" style="fill:#0d526b;"/><circle cx="36.453" cy="220.053" r="0.693" style="fill:#1b2e4d;fill-opacity:0.94;"/><circle cx="563.547" cy="139.947" r="0.693" style="fill:#0d526b;"/><circle cx="39.36" cy="288.747" r="0.693" style="fill:#1b2e4d;fill-opacity:0.94;"/><circle cx="560.64" cy="71.253" r="0.693" style="fill:#0d526b;"/><circle cx="47.52" cy="24.213" r="0.693" style="fill:#1b2e4d;fill-opacity:0.94;"/><circle cx="552.48" cy="335.787" r="0.693" style="fill:#0d526b;"/><circle cx="47.52" cy="335.787" r="0.693" style="fill:#1b2e4d;fill-opacity:0.94;"/><circle cx="552.48" cy="24.213" r="0.693" style="fill:#0d526b;"/><circle cx="54.693" cy="310.293" r="0.693" style="fill:#1b2e4d;fill-opacity:0.94;"/><circle cx="545.307" cy="49.707" r="0.693" style="fill:#0d526b;"/><circle cx="65.253" cy="125.493" r="0.693" style="fill:#1b2e4d;fill-opacity:0.94;"/><circle cx="534.747" cy="234.507" r="0.693" style="fill:#0d526b;"/><circle cx="65.253" cy="234.507" r="0.693" style="fill:#1b2e4d;fill-opacity:0.94;"/><circle cx="534.747" cy="125.493" r="0.693" style="fill:#0d526b;"/><circle cx="88.053" cy="144.213" r="0.693" style="fill:#1b2e4d;fill-opacity:0.94;"/><circle cx="511.947" cy="215.787" r="0.693" style="fill:#0d526b;"/><circle cx="12.933" cy="130.533" r="0.693" style="fill:#1b2e4d;fill-opacity:0.94;"/><circle cx="587.067" cy="229.467" r="0.693" style="fill:#0d526b;"/><circle cx="18.72" cy="118.773" r="0.693" style="fill:#1b2e4d;fill-opacity:0.94;"/><circle cx="581.28" cy="241.227" r="0.693" style="fill:#0d526b;"/><circle cx="18.72" cy="241.227" r="0.693" style="fill:#1b2e4d;fill-opacity:0.94;"/><circle cx="581.28" cy="118.773" r="0.693" style="fill:#0d526b;"/><circle cx="49.227" cy="134.907" r="0.693" style="fill:#1b2e4d;fill-opacity:0.94;"/><circle cx="550.773" cy="225.093" r="0.693" style="fill:#0d526b;"/><circle cx="21.627" cy="309.92" r="0.693" style="fill:#1b2e4d;fill-opacity:0.94;"/><circle cx="578.373" cy="50.08" r="0.693" style="fill:#0d526b;"/><circle cx="83.493" cy="215.733" r="0.693" style="fill:#1b2e4d;fill-opacity:0.94;"/><circle cx="516.507" cy="144.267" r="0.693" style="fill:#0d526b;"/><circle cx="8.373" cy="202.053" r="0.693" style="fill:#1b2e4d;fill-opacity:0.94;"/><circle cx="591.627" cy="157.947" r="0.693" style="fill:#0d526b;"/><circle cx="11.28" cy="270.747" r="0.693" style="fill:#1b2e4d;fill-opacity:0.94;"/><circle cx="588.72" cy="89.253" r="0.693" style="fill:#0d526b;"/><circle cx="41.787" cy="105.387" r="0.693" style="fill:#1b2e4d;fill-opacity:0.94;"/><circle cx="558.213" cy="254.613" r="0.693" style="fill:#0d526b;"/><circle cx="9.627" cy="185.547" r="0.693" style="fill:#1b2e4d;fill-opacity:0.94;"/><circle cx="590.373" cy="174.453" r="0.693" style="fill:#0d526b;"/><circle cx="69.813" cy="162.987" r="0.693" style="fill:#1b2e4d;fill-opacity:0.94;"/><circle cx="530.187" cy="197.013" r="0.693" style="fill:#0d526b;"/><circle cx="101.013" cy="220.053" r="0.693" style="fill:#1b2e4d;fill-opacity:0.94;"/><circle cx="498.987" cy="139.947" r="0.693" style="fill:#0d526b;"/><circle cx="25.893" cy="206.373" r="0.693" style="fill:#1b2e4d;fill-opacity:0.94;"/><circle cx="574.107" cy="153.627" r="0.693" style="fill:#0d526b;"/><circle cx="28.8" cy="275.067" r="0.693" style="fill:#1b2e4d;fill-opacity:0.94;"/><circle cx="571.2" cy="84.933" r="0.693" style="fill:#0d526b;"/><circle cx="150.96" cy="153.627" r="0.693" style="fill:#1b2e4d;fill-opacity:0.94;"/><circle cx="449.04" cy="206.373" r="0.693" style="fill:#0d526b;"/><circle cx="119.253" cy="310.293" r="0.693" style="fill:#1b2e4d;fill-opacity:0.94;"/><circle cx="480.747" cy="49.707" r="0.693" style="fill:#0d526b;"/><circle cx="132.72" cy="63.387" r="0.693" style="fill:#1b2e4d;fill-opacity:0.94;"/><circle cx="467.28" cy="296.613" r="0.693" style="fill:#0d526b;"/><circle cx="75.813" cy="104.613" r="0.693" style="fill:#1b2e4d;fill-opacity:0.94;"/><circle cx="524.187" cy="255.387" r="0.693" style="fill:#0d526b;"/><circle cx="0.693" cy="90.933" r="0.693" style="fill:#1b2e4d;fill-opacity:0.94;"/><circle cx="599.307" cy="269.067" r="0.693" style="fill:#0d526b;"/><circle cx="77.493" cy="274.107" r="0.693" style="fill:#1b2e4d;fill-opacity:0.94;"/><circle cx="522.507" cy="85.893" r="0.693" style="fill:#0d526b;"/><circle cx="2.373" cy="260.427" r="0.693" style="fill:#1b2e4d;fill-opacity:0.94;"/><circle cx="597.627" cy="99.573" r="0.693" style="fill:#0d526b;"/><circle cx="32.88" cy="115.707" r="0.693" style="fill:#1b2e4d;fill-opacity:0.94;"/><circle cx="567.12" cy="244.293" r="0.693" style="fill:#0d526b;"/><circle cx="0.72" cy="175.227" r="0.693" style="fill:#1b2e4d;fill-opacity:0.94;"/><circle cx="599.28" cy="184.773" r="0.693" style="fill:#0d526b;"/><circle cx="5.28" cy="329.12" r="0.693" style="fill:#1b2e4d;fill-opacity:0.94;"/><circle cx="594.72" cy="30.88" r="0.693" style="fill:#0d526b;"/><circle cx="75.813" cy="255.387" r="0.693" style="fill:#1b2e4d;fill-opacity:0.94;"/><circle cx="524.187" cy="104.613" r="0.693" style="fill:#0d526b;"/><circle cx="77.493" cy="123.333" r="0.693" style="fill:#1b2e4d;fill-opacity:0.94;"/><circle cx="522.507" cy="236.667" r="0.693" style="fill:#0d526b;"/><circle cx="2.373" cy="109.653" r="0.693" style="fill:#1b2e4d;fill-opacity:0.94;"/><circle cx="597.627" cy="250.347" r="0.693" style="fill:#0d526b;"/><circle cx="8.16" cy="139.653" r="0.693" style="fill:#1b2e4d;fill-opacity:0.94;"/><circle cx="591.84" cy="220.347" r="0.693" style="fill:#0d526b;"/><circle cx="8.16" cy="220.347" r="0.693" style="fill:#1b2e4d;fill-opacity:0.94;"/><circle cx="591.84" cy="139.653" r="0.693" style="fill:#0d526b;"/><circle cx="38.667" cy="155.787" r="0.693" style="fill:#1b2e4d;fill-opacity:0.94;"/><circle cx="561.333" cy="204.213" r="0.693" style="fill:#0d526b;"/><circle cx="6.507" cy="135.147" r="0.693" style="fill:#1b2e4d;fill-opacity:0.94;"/><circle cx="593.493" cy="224.853" r="0.693" style="fill:#0d526b;"/><circle cx="11.067" cy="289.04" r="0.693" style="fill:#1b2e4d;fill-opacity:0.94;"/><circle cx="588.933" cy="70.96" r="0.693" style="fill:#0d526b;"/><circle cx="41.573" cy="87.093" r="0.693" style="fill:#1b2e4d;fill-opacity:0.94;"/><circle cx="558.427" cy="272.907" r="0.693" style="fill:#0d526b;"/><circle cx="9.413" cy="203.84" r="0.693" style="fill:#1b2e4d;fill-opacity:0.94;"/><circle cx="590.587" cy="156.16" r="0.693" style="fill:#0d526b;"/><circle cx="18.933" cy="215.733" r="0.693" style="fill:#1b2e4d;fill-opacity:0.94;"/><circle cx="581.067" cy="144.267" r="0.693" style="fill:#0d526b;"/><circle cx="49.44" cy="160.4" r="0.693" style="fill:#1b2e4d;fill-opacity:0.94;"/><circle cx="550.56" cy="199.6" r="0.693" style="fill:#0d526b;"/><circle cx="17.28" cy="130.533" r="0.693" style="fill:#1b2e4d;fill-opacity:0.94;"/><circle cx="582.72" cy="229.467" r="0.693" style="fill:#0d526b;"/><circle cx="21.84" cy="284.427" r="0.693" style="fill:#1b2e4d;fill-opacity:0.94;"/><circle cx="578.16" cy="75.573" r="0.693" style="fill:#0d526b;"/><circle cx="52.347" cy="91.707" r="0.693" style="fill:#1b2e4d;fill-opacity:0.94;"/><circle cx="547.653" cy="268.293" r="0.693" style="fill:#0d526b;"/><circle cx="20.187" cy="199.227" r="0.693" style="fill:#1b2e4d;fill-opacity:0.94;"/><circle cx="579.813" cy="160.773" r="0.693" style="fill:#0d526b;"/><circle cx="65.04" cy="28.533" r="0.693" style="fill:#1b2e4d;fill-opacity:0.94;"/><circle cx="534.96" cy="331.467" r="0.693" style="fill:#0d526b;"/><circle cx="88.267" cy="350.187" r="0.693" style="fill:#1b2e4d;fill-opacity:0.94;"/><circle cx="511.733" cy="9.813" r="0.693" style="fill:#0d526b;"/><circle cx="13.147" cy="336.507" r="0.693" style="fill:#1b2e4d;fill-opacity:0.94;"/><circle cx="586.853" cy="23.493" r="0.693" style="fill:#0d526b;"/><circle cx="65.04" cy="331.467" r="0.693" style="fill:#1b2e4d;fill-opacity:0.94;"/><circle cx="534.96" cy="28.533" r="0.693" style="fill:#0d526b;"/><circle cx="94.053" cy="14.373" r="0.693" style="fill:#1b2e4d;fill-opacity:0.94;"/><circle cx="505.947" cy="345.627" r="0.693" style="fill:#0d526b;"/><circle cx="18.933" cy="0.693" r="0.693" style="fill:#1b2e4d;fill-opacity:0.94;"/><circle cx="581.067" cy="359.307" r="0.693" style="fill:#0d526b;"/><circle cx="157.92" cy="359.307" r="0.693" style="fill:#1b2e4d;fill-opacity:0.94;"/><circle cx="442.08" cy="0.693" r="0.693" style="fill:#0d526b;"/><circle cx="94.053" cy="345.627" r="0.693" style="fill:#1b2e4d;fill-opacity:0.94;"/><circle cx="505.947" cy="14.373" r="0.693" style="fill:#0d526b;"/><circle cx="18.933" cy="331.947" r="0.693" style="fill:#1b2e4d;fill-opacity:0.94;"/><circle cx="581.067" cy="28.053" r="0.693" style="fill:#0d526b;"/><circle cx="157.92" cy="28.053" r="0.693" style="fill:#1b2e4d;fill-opacity:0.94;"/><circle cx="442.08" cy="331.947" r="0.693" style="fill:#0d526b;"/><circle cx="11.973" cy="245.013" r="0.693" style="fill:#1b2e4d;fill-opacity:0.94;"/><circle cx="588.027" cy="114.987" r="0.693" style="fill:#0d526b;"/><circle cx="42.48" cy="131.12" r="0.693" style="fill:#1b2e4d;fill-opacity:0.94;"/><circle cx="557.52" cy="228.88" r="0.693" style="fill:#0d526b;"/><circle cx="10.32" cy="159.813" r="0.693" style="fill:#1b2e4d;fill-opacity:0.94;"/><circle cx="589.68" cy="200.187" r="0.693" style="fill:#0d526b;"/><circle cx="14.88" cy="313.707" r="0.693" style="fill:#1b2e4d;fill-opacity:0.94;"/><circle cx="585.12" cy="46.293" r="0.693" style="fill:#0d526b;"/><circle cx="30.213" cy="335.253" r="0.693" style="fill:#1b2e4d;fill-opacity:0.94;"/><circle cx="569.787" cy="24.747" r="0.693" style="fill:#0d526b;"/><circle cx="89.733" cy="100.533" r="0.693" style="fill:#1b2e4d;fill-opacity:0.94;"/><circle cx="510.267" cy="259.467" r="0.693" style="fill:#0d526b;"/><circle cx="14.613" cy="86.853" r="0.693" style="fill:#1b2e4d;fill-opacity:0.94;"/><circle cx="585.387" cy="273.147" r="0.693" style="fill:#0d526b;"/><circle cx="162.24" cy="273.147" r="0.693" style="fill:#1b2e4d;fill-opacity:0.94;"/><circle cx="437.76" cy="86.853" r="0.693" style="fill:#0d526b;"/><circle cx="89.733" cy="259.467" r="0.693" style="fill:#1b2e4d;fill-opacity:0.94;"/><circle cx="510.267" cy="100.533" r="0.693" style="fill:#0d526b;"/><circle cx="164.853" cy="129.573" r="0.693" style="fill:#1b2e4d;fill-opacity:0.94;"/><circle cx="435.147" cy="230.427" r="0.693" style="fill:#0d526b;"/><circle cx="107.973" cy="190.773" r="0.693" style="fill:#1b2e4d;fill-opacity:0.94;"/><circle cx="492.027" cy="169.227" r="0.693" style="fill:#0d526b;"/><circle cx="32.853" cy="177.093" r="0.693" style="fill:#1b2e4d;fill-opacity:0.94;"/><circle cx="567.147" cy="182.907" r="0.693" style="fill:#0d526b;"/><circle cx="144" cy="182.907" r="0.693" style="fill:#1b2e4d;fill-opacity:0.94;"/><circle cx="456" cy="177.093" r="0.693" style="fill:#0d526b;"/><circle cx="51.36" cy="120.213" r="0.693" style="fill:#1b2e4d;fill-opacity:0.94;"/><circle cx="548.64" cy="239.787" r="0.693" style="fill:#0d526b;"/><circle cx="51.36" cy="239.787" r="0.693" style="fill:#1b2e4d;fill-opacity:0.94;"/><circle cx="548.64" cy="120.213" r="0.693" style="fill:#0d526b;"/><circle cx="54.267" cy="308.48" r="0.693" style="fill:#1b2e4d;fill-opacity:0.94;"/><circle cx="545.733" cy="51.52" r="0.693" style="fill:#0d526b;"/><circle cx="32.613" cy="124.053" r="0.693" style="fill:#1b2e4d;fill-opacity:0.94;"/><circle cx="567.387" cy="235.947" r="0.693" style="fill:#0d526b;"/><circle cx="126.48" cy="109.893" r="0.693" style="fill:#1b2e4d;fill-opacity:0.94;"/><circle cx="473.52" cy="250.107" r="0.693" style="fill:#0d526b;"/><circle cx="125.493" cy="263.787" r="0.693" style="fill:#1b2e4d;fill-opacity:0.94;"/><circle cx="474.507" cy="96.213" r="0.693" style="fill:#0d526b;"/><circle cx="126.48" cy="250.107" r="0.693" style="fill:#1b2e4d;fill-opacity:0.94;"/><circle cx="473.52" cy="109.893" r="0.693" style="fill:#0d526b;"/><circle cx="125.493" cy="123.573" r="0.693" style="fill:#1b2e4d;fill-opacity:0.94;"/><circle cx="474.507" cy="236.427" r="0.693" style="fill:#0d526b;"/><circle cx="69.6" cy="210.453" r="0.693" style="fill:#1b2e4d;fill-opacity:0.94;"/><circle cx="530.4" cy="149.547" r="0.693" style="fill:#0d526b;"/><circle cx="83.707" cy="168.267" r="0.693" style="fill:#1b2e4d;fill-opacity:0.94;"/><circle cx="516.293" cy="191.733" r="0.693" style="fill:#0d526b;"/><circle cx="8.587" cy="154.587" r="0.693" style="fill:#1b2e4d;fill-opacity:0.94;"/><circle cx="591.413" cy="205.413" r="0.693" style="fill:#0d526b;"/><circle cx="14.373" cy="33.813" r="0.693" style="fill:#1b2e4d;fill-opacity:0.94;"/><circle cx="585.627" cy="326.187" r="0.693" style="fill:#0d526b;"/><circle cx="14.373" cy="326.187" r="0.693" style="fill:#1b2e4d;fill-opacity:0.94;"/><circle cx="585.627" cy="33.813" r="0.693" style="fill:#0d526b;"/><circle cx="144.72" cy="19.653" r="0.693" style="fill:#1b2e4d;fill-opacity:0.94;"/><circle cx="455.28" cy="340.347" r="0.693" style="fill:#0d526b;"/><circle cx="50.347" cy="225.333" r="0.693" style="fill:#1b2e4d;fill-opacity:0.94;"/><circle cx="549.653" cy="134.667" r="0.693" style="fill:#0d526b;"/><circle cx="53.253" cy="294.027" r="0.693" style="fill:#1b2e4d;fill-opacity:0.94;"/><circle cx="546.747" cy="65.973" r="0.693" style="fill:#0d526b;"/><circle cx="68.587" cy="315.573" r="0.693" style="fill:#1b2e4d;fill-opacity:0.94;"/><circle cx="531.413" cy="44.427" r="0.693" style="fill:#0d526b;"/><circle cx="84.72" cy="63.147" r="0.693" style="fill:#1b2e4d;fill-opacity:0.94;"/><circle cx="515.28" cy="296.853" r="0.693" style="fill:#0d526b;"/><circle cx="9.6" cy="49.467" r="0.693" style="fill:#1b2e4d;fill-opacity:0.94;"/><circle cx="590.4" cy="310.533" r="0.693" style="fill:#0d526b;"/><circle cx="61.627" cy="344.853" r="0.693" style="fill:#1b2e4d;fill-opacity:0.94;"/><circle cx="538.373" cy="15.147" r="0.693" style="fill:#0d526b;"/><circle cx="44.8" cy="168.933" r="0.693" style="fill:#1b2e4d;fill-opacity:0.94;"/><circle cx="555.2" cy="191.067" r="0.693" style="fill:#0d526b;"/><circle cx="39.173" cy="75.333" r="0.693" style="fill:#1b2e4d;fill-opacity:0.94;"/><circle cx="560.827" cy="284.667" r="0.693" style="fill:#0d526b;"/><circle cx="39.173" cy="284.667" r="0.693" style="fill:#1b2e4d;fill-opacity:0.94;"/><circle cx="560.827" cy="75.333" r="0.693" style="fill:#0d526b;"/><circle cx="42.08" cy="353.36" r="0.693" style="fill:#1b2e4d;fill-opacity:0.94;"/><circle cx="557.92" cy="6.64" r="0.693" style="fill:#0d526b;"/><circle cx="119.92" cy="61.173" r="0.693" style="fill:#1b2e4d;fill-opacity:0.94;"/><circle cx="480.08" cy="298.827" r="0.693" style="fill:#0d526b;"/><circle cx="132.053" cy="312.507" r="0.693" style="fill:#1b2e4d;fill-opacity:0.94;"/><circle cx="467.947" cy="47.493" r="0.693" style="fill:#0d526b;"/><circle cx="119.92" cy="298.827" r="0.693" style="fill:#1b2e4d;fill-opacity:0.94;"/><circle cx="480.08" cy="61.173" r="0.693" style="fill:#0d526b;"/><circle cx="132.053" cy="74.853" r="0.693" style="fill:#1b2e4d;fill-opacity:0.94;"/><circle cx="467.947" cy="285.147" r="0.693" style="fill:#0d526b;"/><circle cx="40.08" cy="0.693" r="0.693" style="fill:#1b2e4d;fill-opacity:0.94;"/><circle cx="559.92" cy="359.307" r="0.693" style="fill:#0d526b;"/><circle cx="40.08" cy="359.307" r="0.693" style="fill:#1b2e4d;fill-opacity:0.94;"/><circle cx="559.92" cy="0.693" r="0.693" style="fill:#0d526b;"/><circle cx="58.32" cy="90.933" r="0.693" style="fill:#1b2e4d;fill-opacity:0.94;"/><circle cx="541.68" cy="269.067" r="0.693" style="fill:#0d526b;"/><circle cx="94.987" cy="287.787" r="0.693" style="fill:#1b2e4d;fill-opacity:0.94;"/><circle cx="505.013" cy="72.213" r="0.693" style="fill:#0d526b;"/><circle cx="19.867" cy="274.107" r="0.693" style="fill:#1b2e4d;fill-opacity:0.94;"/><circle cx="580.133" cy="85.893" r="0.693" style="fill:#0d526b;"/><circle cx="50.373" cy="102.027" r="0.693" style="fill:#1b2e4d;fill-opacity:0.94;"/><circle cx="549.627" cy="257.973" r="0.693" style="fill:#0d526b;"/><circle cx="18.213" cy="188.907" r="0.693" style="fill:#1b2e4d;fill-opacity:0.94;"/><circle cx="581.787" cy="171.093" r="0.693" style="fill:#0d526b;"/><circle cx="22.773" cy="342.8" r="0.693" style="fill:#1b2e4d;fill-opacity:0.94;"/><circle cx="577.227" cy="17.2" r="0.693" style="fill:#0d526b;"/><circle cx="58.32" cy="269.067" r="0.693" style="fill:#1b2e4d;fill-opacity:0.94;"/><circle cx="541.68" cy="90.933" r="0.693" style="fill:#0d526b;"/><circle cx="94.987" cy="109.653" r="0.693" style="fill:#1b2e4d;fill-opacity:0.94;"/><circle cx="505.013" cy="250.347" r="0.693" style="fill:#0d526b;"/><circle cx="19.867" cy="95.973" r="0.693" style="fill:#1b2e4d;fill-opacity:0.94;"/><circle cx="580.133" cy="264.027" r="0.693" style="fill:#0d526b;"/><circle cx="25.653" cy="153.333" r="0.693" style="fill:#1b2e4d;fill-opacity:0.94;"/><circle cx="574.347" cy="206.667" r="0.693" style="fill:#0d526b;"/><circle cx="133.44" cy="139.173" r="0.693" style="fill:#1b2e4d;fill-opacity:0.94;"/><circle cx="466.56" cy="220.827" r="0.693" style="fill:#0d526b;"/><circle cx="118.533" cy="234.507" r="0.693" style="fill:#1b2e4d;fill-opacity:0.94;"/><circle cx="481.467" cy="125.493" r="0.693" style="fill:#0d526b;"/><circle cx="133.44" cy="220.827" r="0.693" style="fill:#1b2e4d;fill-opacity:0.94;"/><circle cx="466.56" cy="139.173" r="0.693" style="fill:#0d526b;"/><circle cx="118.533" cy="152.853" r="0.693" style="fill:#1b2e4d;fill-opacity:0.94;"/><circle cx="481.467" cy="207.147" r="0.693" style="fill:#0d526b;"/><circle cx="75.84" cy="145.173" r="0.693" style="fill:#1b2e4d;fill-opacity:0.94;"/><circle cx="524.16" cy="214.827" r="0.693" style="fill:#0d526b;"/><circle cx="77.467" cy="233.547" r="0.693" style="fill:#1b2e4d;fill-opacity:0.94;"/><circle cx="522.533" cy="126.453" r="0.693" style="fill:#0d526b;"/><circle cx="2.347" cy="219.867" r="0.693" style="fill:#1b2e4d;fill-opacity:0.94;"/><circle cx="597.653" cy="140.133" r="0.693" style="fill:#0d526b;"/><circle cx="32.853" cy="156.267" r="0.693" style="fill:#1b2e4d;fill-opacity:0.94;"/><circle cx="567.147" cy="203.733" r="0.693" style="fill:#0d526b;"/><circle cx="0.693" cy="134.667" r="0.693" style="fill:#1b2e4d;fill-opacity:0.94;"/><circle cx="599.307" cy="225.333" r="0.693" style="fill:#0d526b;"/><circle cx="5.253" cy="288.56" r="0.693" style="fill:#1b2e4d;fill-opacity:0.94;"/><circle cx="594.747" cy="71.44" r="0.693" style="fill:#0d526b;"/><circle cx="35.76" cy="87.573" r="0.693" style="fill:#1b2e4d;fill-opacity:0.94;"/><circle cx="564.24" cy="272.427" r="0.693" style="fill:#0d526b;"/><circle cx="3.6" cy="203.36" r="0.693" style="fill:#1b2e4d;fill-opacity:0.94;"/><circle cx="596.4" cy="156.64" r="0.693" style="fill:#0d526b;"/><circle cx="8.133" cy="99.093" r="0.693" style="fill:#1b2e4d;fill-opacity:0.94;"/><circle cx="591.867" cy="260.907" r="0.693" style="fill:#0d526b;"/><circle cx="8.133" cy="260.907" r="0.693" style="fill:#1b2e4d;fill-opacity:0.94;"/><circle cx="591.867" cy="99.093" r="0.693" style="fill:#0d526b;"/><circle cx="38.64" cy="115.227" r="0.693" style="fill:#1b2e4d;fill-opacity:0.94;"/><circle cx="561.36" cy="244.773" r="0.693" style="fill:#0d526b;"/><circle cx="6.48" cy="175.707" r="0.693" style="fill:#1b2e4d;fill-opacity:0.94;"/><circle cx="593.52" cy="184.293" r="0.693" style="fill:#0d526b;"/><circle cx="11.04" cy="329.6" r="0.693" style="fill:#1b2e4d;fill-opacity:0.94;"/><circle cx="588.96" cy="30.4" r="0.693" style="fill:#0d526b;"/><circle cx="150.96" cy="84.933" r="0.693" style="fill:#1b2e4d;fill-opacity:0.94;"/><circle cx="449.04" cy="275.067" r="0.693" style="fill:#0d526b;"/><circle cx="157.893" cy="138.267" r="0.693" style="fill:#1b2e4d;fill-opacity:0.94;"/><circle cx="442.107" cy="221.733" r="0.693" style="fill:#0d526b;"/><circle cx="25.867" cy="200.373" r="0.693" style="fill:#1b2e4d;fill-opacity:0.94;"/><circle cx="574.133" cy="159.627" r="0.693" style="fill:#0d526b;"/><circle cx="28.773" cy="269.067" r="0.693" style="fill:#1b2e4d;fill-opacity:0.94;"/><circle cx="571.227" cy="90.933" r="0.693" style="fill:#0d526b;"/><circle cx="58.107" cy="43.893" r="0.693" style="fill:#1b2e4d;fill-opacity:0.94;"/><circle cx="541.893" cy="316.107" r="0.693" style="fill:#0d526b;"/><circle cx="95.2" cy="334.827" r="0.693" style="fill:#1b2e4d;fill-opacity:0.94;"/><circle cx="504.8" cy="25.173" r="0.693" style="fill:#0d526b;"/><circle cx="58.107" cy="316.107" r="0.693" style="fill:#1b2e4d;fill-opacity:0.94;"/><circle cx="541.893" cy="43.893" r="0.693" style="fill:#0d526b;"/><circle cx="95.2" cy="62.613" r="0.693" style="fill:#1b2e4d;fill-opacity:0.94;"/><circle cx="504.8" cy="297.387" r="0.693" style="fill:#0d526b;"/><circle cx="20.08" cy="48.933" r="0.693" style="fill:#1b2e4d;fill-opacity:0.94;"/><circle cx="579.92" cy="311.067" r="0.693" style="fill:#0d526b;"/><circle cx="100.987" cy="29.733" r="0.693" style="fill:#1b2e4d;fill-opacity:0.94;"/><circle cx="499.013" cy="330.267" r="0.693" style="fill:#0d526b;"/><circle cx="25.867" cy="16.053" r="0.693" style="fill:#1b2e4d;fill-opacity:0.94;"/><circle cx="574.133" cy="343.947" r="0.693" style="fill:#0d526b;"/><circle cx="150.987" cy="343.947" r="0.693" style="fill:#1b2e4d;fill-opacity:0.94;"/><circle cx="449.013" cy="16.053" r="0.693" style="fill:#0d526b;"/><circle cx="100.987" cy="330.267" r="0.693" style="fill:#1b2e4d;fill-opacity:0.94;"/><circle cx="499.013" cy="29.733" r="0.693" style="fill:#0d526b;"/><circle cx="25.867" cy="316.587" r="0.693" style="fill:#1b2e4d;fill-opacity:0.94;"/><circle cx="574.133" cy="43.413" r="0.693" style="fill:#0d526b;"/><circle cx="150.987" cy="43.413" r="0.693" style="fill:#1b2e4d;fill-opacity:0.94;"/><circle cx="449.013" cy="316.587" r="0.693" style="fill:#0d526b;"/><circle cx="44.107" cy="290.613" r="0.693" style="fill:#1b2e4d;fill-opacity:0.94;"/><circle cx="555.893" cy="69.387" r="0.693" style="fill:#0d526b;"/><circle cx="47.013" cy="359.307" r="0.693" style="fill:#1b2e4d;fill-opacity:0.94;"/><circle cx="552.987" cy="0.693" r="0.693" style="fill:#0d526b;"/><circle cx="37.147" cy="319.893" r="0.693" style="fill:#1b2e4d;fill-opacity:0.94;"/><circle cx="562.853" cy="40.107" r="0.693" style="fill:#0d526b;"/><circle cx="20.32" cy="143.973" r="0.693" style="fill:#1b2e4d;fill-opacity:0.94;"/><circle cx="579.68" cy="216.027" r="0.693" style="fill:#0d526b;"/><circle cx="63.653" cy="100.293" r="0.693" style="fill:#1b2e4d;fill-opacity:0.94;"/><circle cx="536.347" cy="259.707" r="0.693" style="fill:#0d526b;"/><circle cx="89.654" cy="278.427" r="0.693" style="fill:#1b2e4d;fill-opacity:0.94;"/><circle cx="510.346" cy="81.573" r="0.693" style="fill:#0d526b;"/><circle cx="89.654" cy="119.013" r="0.693" style="fill:#1b2e4d;fill-opacity:0.94;"/><circle cx="510.346" cy="240.987" r="0.693" style="fill:#0d526b;"/><circle cx="14.534" cy="105.333" r="0.693" style="fill:#1b2e4d;fill-opacity:0.94;"/><circle cx="585.466" cy="254.667" r="0.693" style="fill:#0d526b;"/><circle cx="95.44" cy="86.133" r="0.693" style="fill:#1b2e4d;fill-opacity:0.94;"/><circle cx="504.56" cy="273.867" r="0.693" style="fill:#0d526b;"/><circle cx="20.32" cy="72.453" r="0.693" style="fill:#1b2e4d;fill-opacity:0.94;"/><circle cx="579.68" cy="287.547" r="0.693" style="fill:#0d526b;"/><circle cx="156.533" cy="287.547" r="0.693" style="fill:#1b2e4d;fill-opacity:0.94;"/><circle cx="443.467" cy="72.453" r="0.693" style="fill:#0d526b;"/><circle cx="95.44" cy="273.867" r="0.693" style="fill:#1b2e4d;fill-opacity:0.94;"/><circle cx="504.56" cy="86.133" r="0.693" style="fill:#0d526b;"/><circle cx="20.32" cy="260.187" r="0.693" style="fill:#1b2e4d;fill-opacity:0.94;"/><circle cx="579.68" cy="99.813" r="0.693" style="fill:#0d526b;"/><circle cx="50.827" cy="115.947" r="0.693" style="fill:#1b2e4d;fill-opacity:0.94;"/><circle cx="549.173" cy="244.053" r="0.693" style="fill:#0d526b;"/><circle cx="18.667" cy="174.987" r="0.693" style="fill:#1b2e4d;fill-opacity:0.94;"/><circle cx="581.333" cy="185.013" r="0.693" style="fill:#0d526b;"/><circle cx="23.227" cy="328.88" r="0.693" style="fill:#1b2e4d;fill-opacity:0.94;"/><circle cx="576.773" cy="31.12" r="0.693" style="fill:#0d526b;"/><circle cx="64.56" cy="25.653" r="0.693" style="fill:#1b2e4d;fill-opacity:0.94;"/><circle cx="535.44" cy="334.347" r="0.693" style="fill:#0d526b;"/><circle cx="82.8" cy="115.893" r="0.693" style="fill:#1b2e4d;fill-opacity:0.94;"/><circle cx="517.2" cy="244.107" r="0.693" style="fill:#0d526b;"/><circle cx="70.507" cy="262.827" r="0.693" style="fill:#1b2e4d;fill-opacity:0.94;"/><circle cx="529.493" cy="97.173" r="0.693" style="fill:#0d526b;"/><circle cx="82.8" cy="244.107" r="0.693" style="fill:#1b2e4d;fill-opacity:0.94;"/><circle cx="517.2" cy="115.893" r="0.693" style="fill:#0d526b;"/><circle cx="7.68" cy="230.427" r="0.693" style="fill:#1b2e4d;fill-opacity:0.94;"/><circle cx="592.32" cy="129.573" r="0.693" style="fill:#0d526b;"/><circle cx="38.187" cy="145.707" r="0.693" style="fill:#1b2e4d;fill-opacity:0.94;"/><circle cx="561.813" cy="214.293" r="0.693" style="fill:#0d526b;"/><circle cx="6.027" cy="145.227" r="0.693" style="fill:#1b2e4d;fill-opacity:0.94;"/><circle cx="593.973" cy="214.773" r="0.693" style="fill:#0d526b;"/><circle cx="10.587" cy="299.12" r="0.693" style="fill:#1b2e4d;fill-opacity:0.94;"/><circle cx="589.413" cy="60.88" r="0.693" style="fill:#0d526b;"/><circle cx="41.093" cy="77.013" r="0.693" style="fill:#1b2e4d;fill-opacity:0.94;"/><circle cx="558.907" cy="282.987" r="0.693" style="fill:#0d526b;"/><circle cx="8.933" cy="213.92" r="0.693" style="fill:#1b2e4d;fill-opacity:0.94;"/><circle cx="591.067" cy="146.08" r="0.693" style="fill:#0d526b;"/><circle cx="70.507" cy="134.613" r="0.693" style="fill:#1b2e4d;fill-opacity:0.94;"/><circle cx="529.493" cy="225.387" r="0.693" style="fill:#0d526b;"/><circle cx="157.92" cy="114.213" r="0.693" style="fill:#1b2e4d;fill-opacity:0.94;"/><circle cx="442.08" cy="245.787" r="0.693" style="fill:#0d526b;"/><defs><linearGradient id="_Linear1" x1="0" y1="0" x2="1" y2="0" gradientUnits="userSpaceOnUse" gradientTransform="matrix(722.16,-35.76,35.76,722.16,-88.56,208.08)"><stop offset="0" style="stop-color:#4999b2;stop-opacity:1"/><stop offset="1" style="stop-color:#1c2b4b;stop-opacity:1"/></linearGradient></defs></svg>