<svg width="300" height="300"
    xmlns="http://www.w3.org/2000/svg">
    <rect width="100%" height="100%" fill="transparent" />
    <circle cx="60" cy="20" r="4" fill="white" />
    <circle cx="190" cy="112" r="4" fill="white" />
    <circle cx="280" cy="170" r="4" fill="white" />
    <circle cx="133" cy="27" r="4" fill="white" />
    <circle cx="30" cy="150" r="4" fill="white" />
    <circle cx="170" cy="270" r="4" fill="white" />
    <circle cx="140" cy="200" r="4" fill="white" />
    <line x1="60" y1="20" x2="133" y2="27" stroke="#ffffff61" />
    <line x1="60" y1="20" x2="30" y2="150" stroke="#ffffff61" />
    <!-- <line x1="30" y1="150" x2="190" y2="112" stroke="#ffffff61" /> -->
    <line x1="170" y1="270" x2="140" y2="200" stroke="#ffffff61" />
    <line x1="170" y1="270" x2="280" y2="170" stroke="#ffffff61" />
    <line x1="140" y1="200" x2="30" y2="150" stroke="#ffffff61" />
    <line x1="140" y1="200" x2="190" y2="112" stroke="#ffffff61" />
    <!-- <line x1="280" y1="170" x2="190" y2="112" stroke="#ffffff61" /> -->
    <!-- <line x1="280" y1="170" x2="140" y2="200" stroke="#ffffff61" /> -->
</svg>