<?xml version="1.0" encoding="UTF-8" standalone="no"?>
<!DOCTYPE svg PUBLIC "-//W3C//DTD SVG 1.1//EN" "http://www.w3.org/Graphics/SVG/1.1/DTD/svg11.dtd">
<svg width="100%" height="100%" viewBox="0 0 1200 801" version="1.1" xmlns="http://www.w3.org/2000/svg" xmlns:xlink="http://www.w3.org/1999/xlink" xml:space="preserve" xmlns:serif="http://www.serif.com/" style="fill-rule:evenodd;clip-rule:evenodd;stroke-linejoin:round;stroke-miterlimit:2;">
    <g transform="matrix(0.734181,0,0,0.734181,-188.473,-266.042)">
        <path d="M819.383,940.42C810.084,928.978 804.942,914.631 804.942,899.754C804.942,899.74 804.942,899.727 804.942,899.714C804.942,882.612 811.736,866.212 823.828,854.119C835.92,842.027 852.321,835.234 869.422,835.234C869.424,835.234 869.425,835.234 869.426,835.234C879.054,835.234 888.46,837.387 897.001,841.427L897.001,870.346C891.332,866.745 884.973,864.983 877.925,864.983C867.966,864.983 859.462,868.507 852.414,875.632C845.366,882.604 841.842,891.107 841.842,901.066C841.842,910.949 845.366,919.453 852.414,926.501C859.462,933.549 867.966,937.073 877.925,937.073C887.884,937.073 896.311,933.549 903.283,926.501C910.407,919.453 913.931,910.949 913.931,901.066L913.931,853.056C914.298,853.406 914.661,853.76 915.02,854.119C927.113,866.212 933.906,882.612 933.906,899.714C933.906,899.727 933.906,899.74 933.906,899.754C933.906,916.855 927.113,933.255 915.02,945.348C902.928,957.44 886.527,964.234 869.426,964.234C869.425,964.234 869.424,964.234 869.422,964.234C858.439,964.234 847.745,961.432 838.296,956.223L838.296,902.707L838.305,902.707C838.305,892.351 843.705,874.02 863,866C840.301,863.78 819.383,883.213 819.383,905.178L819.383,940.42ZM877.925,882.144C872.716,882.144 868.272,883.983 864.518,887.66C860.841,891.337 859.003,895.857 859.003,901.066C859.003,906.199 860.841,910.642 864.518,914.396C868.272,918.074 872.716,919.912 877.925,919.912C883.134,919.912 887.578,918.074 891.255,914.396C894.932,910.642 896.694,906.199 896.694,901.066C896.694,895.857 894.932,891.337 891.255,887.66C887.578,883.983 883.134,882.144 877.925,882.144Z" style="fill:rgb(0, 193, 255);"/>
    </g>
    <g transform="matrix(1.58793,0,0,1.58793,-276.985,-536.162)">
        <g transform="matrix(54.7503,0,0,54.7503,499.878,604.445)">
            <path d="M0.167,-0.441C0.195,-0.453 0.225,-0.458 0.255,-0.458L0.255,-0.351C0.239,-0.351 0.224,-0.348 0.209,-0.342C0.195,-0.336 0.183,-0.327 0.171,-0.316C0.161,-0.305 0.152,-0.293 0.146,-0.279C0.141,-0.269 0.137,-0.255 0.137,-0.237L0.137,0L0.029,0L0.029,-0.459L0.137,-0.459L0.137,-0.425C0.148,-0.432 0.158,-0.437 0.167,-0.441Z" style="fill:rgb(114, 29, 184);fill-rule:nonzero;"/>
        </g>
        <g transform="matrix(55.5109,0,0,55.5109,539.872,604.504)">
            <path d="M0.259,-0.35C0.226,-0.35 0.198,-0.338 0.174,-0.315C0.15,-0.291 0.139,-0.263 0.139,-0.229C0.139,-0.197 0.15,-0.168 0.174,-0.145C0.198,-0.121 0.226,-0.109 0.259,-0.109C0.292,-0.109 0.321,-0.121 0.344,-0.145C0.368,-0.168 0.379,-0.197 0.379,-0.229C0.379,-0.263 0.368,-0.291 0.344,-0.315C0.321,-0.338 0.292,-0.35 0.259,-0.35ZM0.489,-0.229C0.489,-0.166 0.466,-0.112 0.421,-0.067C0.376,-0.022 0.323,0 0.259,0C0.196,0 0.142,-0.022 0.097,-0.067C0.052,-0.112 0.029,-0.166 0.029,-0.229C0.029,-0.293 0.052,-0.347 0.097,-0.392C0.142,-0.437 0.196,-0.459 0.259,-0.459C0.304,-0.459 0.345,-0.448 0.381,-0.425L0.381,-0.799L0.489,-0.799L0.489,-0.229Z" style="fill:rgb(0, 193, 255);fill-rule:nonzero;"/>
        </g>
        <g transform="matrix(55.5109,0,0,-55.5109,621.846,579.111)">
            <path d="M0.259,-0.35C0.226,-0.35 0.198,-0.338 0.174,-0.315C0.15,-0.291 0.139,-0.263 0.139,-0.229C0.139,-0.197 0.15,-0.168 0.174,-0.145C0.198,-0.121 0.226,-0.109 0.259,-0.109C0.292,-0.109 0.321,-0.121 0.344,-0.145C0.368,-0.168 0.379,-0.197 0.379,-0.229C0.379,-0.263 0.368,-0.291 0.344,-0.315C0.321,-0.338 0.292,-0.35 0.259,-0.35ZM0.489,-0.229C0.489,-0.166 0.466,-0.112 0.421,-0.067C0.376,-0.022 0.323,0 0.259,0C0.196,0 0.142,-0.022 0.097,-0.067C0.052,-0.112 0.029,-0.166 0.029,-0.229C0.029,-0.293 0.052,-0.347 0.097,-0.392C0.142,-0.437 0.196,-0.459 0.259,-0.459C0.304,-0.459 0.345,-0.448 0.381,-0.425L0.381,-0.799L0.489,-0.799L0.489,-0.229Z" style="fill:rgb(0, 193, 255);fill-rule:nonzero;"/>
        </g>
        <g transform="matrix(54.7503,0,0,54.7503,511.475,604.445)">
            <path d="M0.259,-0.35C0.226,-0.35 0.198,-0.338 0.174,-0.315C0.15,-0.291 0.139,-0.263 0.139,-0.229C0.139,-0.197 0.15,-0.168 0.174,-0.145C0.198,-0.121 0.226,-0.109 0.259,-0.109C0.292,-0.109 0.321,-0.121 0.344,-0.145C0.368,-0.168 0.379,-0.197 0.379,-0.229C0.379,-0.263 0.368,-0.291 0.344,-0.315C0.321,-0.338 0.292,-0.35 0.259,-0.35ZM0.489,-0.229C0.489,-0.166 0.466,-0.112 0.421,-0.067C0.376,-0.022 0.323,0 0.259,0C0.196,0 0.142,-0.022 0.097,-0.067C0.052,-0.112 0.029,-0.166 0.029,-0.229C0.029,-0.293 0.052,-0.347 0.097,-0.392C0.142,-0.437 0.196,-0.459 0.259,-0.459C0.304,-0.459 0.345,-0.448 0.381,-0.425L0.381,-0.799L0.489,-0.799L0.489,-0.229Z" style="fill:rgb(114, 29, 184);fill-rule:nonzero;"/>
        </g>
        <g transform="matrix(55.5109,0,0,55.5109,567.538,604.504)">
            <path d="M0.255,-0.35C0.24,-0.349 0.225,-0.346 0.21,-0.339C0.195,-0.332 0.182,-0.324 0.171,-0.312C0.161,-0.3 0.153,-0.288 0.147,-0.273C0.142,-0.261 0.14,-0.249 0.139,-0.236L0.334,-0.322C0.325,-0.33 0.314,-0.336 0.303,-0.341C0.288,-0.347 0.272,-0.35 0.257,-0.35L0.255,-0.35ZM0.26,0C0.231,0 0.203,-0.005 0.176,-0.016C0.148,-0.027 0.123,-0.042 0.102,-0.063C0.079,-0.084 0.062,-0.109 0.049,-0.137C0.037,-0.164 0.03,-0.192 0.029,-0.221L0.029,-0.228C0.029,-0.258 0.035,-0.286 0.045,-0.312C0.056,-0.341 0.072,-0.365 0.092,-0.387C0.113,-0.41 0.138,-0.427 0.166,-0.439C0.194,-0.452 0.223,-0.458 0.253,-0.459L0.258,-0.459C0.287,-0.459 0.315,-0.454 0.342,-0.443C0.37,-0.432 0.394,-0.416 0.416,-0.395C0.442,-0.371 0.467,-0.33 0.49,-0.272L0.183,-0.137C0.193,-0.129 0.204,-0.123 0.215,-0.118C0.229,-0.112 0.244,-0.109 0.258,-0.109L0.263,-0.109C0.278,-0.11 0.293,-0.114 0.307,-0.12C0.322,-0.126 0.335,-0.135 0.346,-0.147C0.356,-0.159 0.365,-0.172 0.371,-0.186L0.472,-0.146C0.461,-0.119 0.446,-0.094 0.425,-0.072C0.404,-0.05 0.379,-0.032 0.351,-0.02C0.324,-0.008 0.296,-0.001 0.267,0L0.26,0Z" style="fill:rgb(0, 193, 255);fill-rule:nonzero;"/>
        </g>
        <g transform="matrix(55.5109,0,0,55.5109,594.661,604.504)">
            <path d="M0.081,-0.037C0.049,-0.064 0.034,-0.098 0.034,-0.139L0.14,-0.139C0.14,-0.126 0.147,-0.117 0.161,-0.111C0.168,-0.108 0.175,-0.106 0.182,-0.106C0.196,-0.106 0.207,-0.108 0.214,-0.112C0.223,-0.116 0.228,-0.123 0.228,-0.131C0.228,-0.141 0.227,-0.148 0.222,-0.152C0.214,-0.16 0.199,-0.165 0.176,-0.167C0.129,-0.173 0.092,-0.19 0.065,-0.218C0.041,-0.244 0.029,-0.273 0.029,-0.307C0.029,-0.347 0.042,-0.381 0.068,-0.41C0.097,-0.443 0.134,-0.459 0.18,-0.459C0.226,-0.459 0.263,-0.444 0.292,-0.414C0.322,-0.385 0.337,-0.347 0.337,-0.302L0.23,-0.302C0.23,-0.335 0.214,-0.352 0.18,-0.352C0.15,-0.352 0.136,-0.337 0.136,-0.307C0.136,-0.288 0.153,-0.277 0.188,-0.272C0.245,-0.266 0.285,-0.247 0.31,-0.213C0.327,-0.191 0.335,-0.164 0.335,-0.131C0.335,-0.093 0.32,-0.062 0.29,-0.037C0.26,-0.013 0.224,0 0.182,0C0.143,0 0.109,-0.013 0.081,-0.037Z" style="fill:rgb(0, 193, 255);fill-rule:nonzero;"/>
        </g>
        <g transform="matrix(55.5109,0,0,55.5109,612.997,604.504)">
            <path d="M0.151,0L0.043,0L0.043,-0.459L0.151,-0.459L0.151,0ZM0.145,-0.528C0.132,-0.515 0.116,-0.508 0.098,-0.508C0.079,-0.508 0.063,-0.515 0.049,-0.528C0.036,-0.541 0.029,-0.558 0.029,-0.576C0.029,-0.595 0.036,-0.611 0.049,-0.624C0.063,-0.638 0.079,-0.644 0.098,-0.644C0.116,-0.644 0.132,-0.638 0.145,-0.624C0.159,-0.611 0.165,-0.595 0.165,-0.576C0.165,-0.558 0.159,-0.541 0.145,-0.528Z" style="fill:rgb(0, 193, 255);fill-rule:nonzero;"/>
        </g>
        <g transform="matrix(55.5109,0,0,55.5109,649.746,604.504)">
            <path d="M0.257,-0.459C0.32,-0.459 0.373,-0.437 0.418,-0.392C0.463,-0.348 0.485,-0.294 0.485,-0.231L0.485,0L0.376,0L0.376,-0.231C0.376,-0.264 0.365,-0.292 0.341,-0.315C0.318,-0.339 0.29,-0.35 0.257,-0.35C0.225,-0.35 0.196,-0.339 0.173,-0.315C0.149,-0.292 0.138,-0.264 0.138,-0.231L0.138,0L0.029,0L0.029,-0.231C0.029,-0.294 0.052,-0.348 0.096,-0.392C0.141,-0.437 0.195,-0.459 0.257,-0.459Z" style="fill:rgb(0, 193, 255);fill-rule:nonzero;"/>
        </g>
    </g>
</svg>
